<svg width="1462" height="1102" viewBox="0 0 1462 1102" fill="none" xmlns="http://www.w3.org/2000/svg">
<rect width="1280" height="974" transform="translate(74 58.2022)" fill="white"/>
<rect x="0.5" y="0.5" width="511" height="486" rx="243" stroke="#B7001A" stroke-opacity="0.1"/>
<rect x="1078.5" y="185.769" width="383" height="364.25" rx="182.125" stroke="#B7001A" stroke-opacity="0.05"/>
<rect x="172.5" y="492.808" width="639" height="607.75" rx="303.875" stroke="#B7001A" stroke-opacity="0.1"/>
<rect x="1097" y="58.2022" width="1" height="128" fill="#B7001A" fill-opacity="0.2"/>
<rect x="394" y="840.202" width="1" height="192" fill="#B7001A" fill-opacity="0.2"/>
<path d="M212.771 237.202V167.358H242.677L248.959 189.202C249.49 191.077 250.099 193.562 250.787 196.655C251.474 199.749 252.154 203.069 252.826 206.616C253.498 210.163 254.115 213.569 254.677 216.835C255.24 220.101 255.677 222.858 255.99 225.108H252.474C252.787 222.858 253.216 220.101 253.763 216.835C254.31 213.569 254.919 210.163 255.591 206.616C256.263 203.069 256.935 199.749 257.607 196.655C258.279 193.562 258.88 191.077 259.412 189.202L265.599 167.358H295.552V237.202H276.427V210.202C276.427 208.608 276.466 206.491 276.544 203.851C276.623 201.21 276.709 198.312 276.802 195.155C276.896 191.999 276.982 188.827 277.06 185.64C277.138 182.452 277.177 179.515 277.177 176.827H278.255C277.693 179.796 277.052 182.882 276.334 186.085C275.615 189.288 274.88 192.413 274.13 195.46C273.38 198.507 272.662 201.304 271.974 203.851C271.287 206.398 270.693 208.515 270.193 210.202L262.084 237.202H246.334L238.084 210.202C237.584 208.515 236.982 206.398 236.279 203.851C235.576 201.304 234.834 198.507 234.052 195.46C233.271 192.413 232.513 189.288 231.779 186.085C231.044 182.882 230.38 179.796 229.787 176.827H231.146C231.146 179.515 231.185 182.452 231.263 185.64C231.341 188.827 231.427 191.999 231.521 195.155C231.615 198.312 231.701 201.21 231.779 203.851C231.857 206.491 231.896 208.608 231.896 210.202V237.202H212.771ZM299.809 237.202L322.449 167.358H348.324L371.809 237.202H350.34L342.23 210.108C340.48 204.233 338.84 198.132 337.309 191.804C335.777 185.476 334.324 179.187 332.949 172.937H337.262C335.949 179.187 334.621 185.476 333.277 191.804C331.934 198.132 330.418 204.233 328.73 210.108L320.996 237.202H299.809ZM316.59 223.796V209.64H355.027V223.796H316.59ZM376.065 237.202V167.358H396.69L413.33 194.78C414.768 197.155 416.112 199.53 417.362 201.905C418.612 204.28 419.823 206.898 420.994 209.757C422.166 212.616 423.362 215.952 424.58 219.765H422.94C422.784 217.233 422.588 214.304 422.354 210.976C422.119 207.648 421.909 204.366 421.721 201.132C421.534 197.898 421.44 195.171 421.44 192.952V167.358H440.94V237.202H420.315L404.799 211.702C403.049 208.796 401.51 206.085 400.182 203.569C398.854 201.054 397.573 198.39 396.338 195.577C395.104 192.765 393.69 189.515 392.096 185.827H394.065C394.315 189.108 394.557 192.374 394.791 195.624C395.026 198.874 395.213 201.89 395.354 204.671C395.494 207.452 395.565 209.796 395.565 211.702V237.202H376.065ZM477.634 238.046C471.634 238.046 466.376 236.991 461.86 234.882C457.344 232.773 453.829 229.773 451.313 225.882C448.798 221.991 447.54 217.39 447.54 212.077V167.358H466.477V210.483C466.477 212.671 466.962 214.601 467.93 216.273C468.899 217.944 470.219 219.257 471.891 220.21C473.563 221.163 475.477 221.64 477.634 221.64C479.821 221.64 481.759 221.163 483.446 220.21C485.134 219.257 486.462 217.944 487.43 216.273C488.399 214.601 488.884 212.671 488.884 210.483V167.358H507.821V212.077C507.821 217.39 506.555 221.991 504.024 225.882C501.493 229.773 497.962 232.773 493.43 234.882C488.899 236.991 483.634 238.046 477.634 238.046ZM510.202 237.202L532.843 167.358H558.718L582.202 237.202H560.734L552.624 210.108C550.874 204.233 549.234 198.132 547.702 191.804C546.171 185.476 544.718 179.187 543.343 172.937H547.655C546.343 179.187 545.015 185.476 543.671 191.804C542.327 198.132 540.812 204.233 539.124 210.108L531.39 237.202H510.202ZM526.984 223.796V209.64H565.421V223.796H526.984ZM586.459 237.202V167.358H605.396V221.921H633.615V237.202H586.459ZM681.971 237.202H662.846V221.077H681.221C684.69 221.077 687.651 220.53 690.104 219.437C692.557 218.343 694.424 216.429 695.705 213.694C696.987 210.96 697.627 207.171 697.627 202.327C697.627 197.452 696.971 193.648 695.659 190.913C694.346 188.179 692.432 186.257 689.916 185.148C687.401 184.038 684.315 183.483 680.659 183.483H662.565V167.358H681.69C688.877 167.358 695.08 168.757 700.299 171.554C705.518 174.351 709.549 178.358 712.393 183.577C715.237 188.796 716.659 195.046 716.659 202.327C716.659 209.577 715.244 215.812 712.416 221.03C709.588 226.249 705.58 230.249 700.393 233.03C695.205 235.812 689.065 237.202 681.971 237.202ZM674.002 167.358V237.202H655.065V167.358H674.002ZM722.04 237.202V167.358H772.384V182.64H740.977V194.452H769.759V209.358H740.977V221.921H772.196V237.202H722.04ZM825.287 238.046C819.287 238.046 814.029 236.991 809.513 234.882C804.998 232.773 801.482 229.773 798.966 225.882C796.451 221.991 795.193 217.39 795.193 212.077V167.358H814.13V210.483C814.13 212.671 814.615 214.601 815.583 216.273C816.552 217.944 817.873 219.257 819.544 220.21C821.216 221.163 823.13 221.64 825.287 221.64C827.474 221.64 829.412 221.163 831.099 220.21C832.787 219.257 834.115 217.944 835.083 216.273C836.052 214.601 836.537 212.671 836.537 210.483V167.358H855.474V212.077C855.474 217.39 854.208 221.991 851.677 225.882C849.146 229.773 845.615 232.773 841.083 234.882C836.552 236.991 831.287 238.046 825.287 238.046ZM890.48 238.046C884.418 238.046 879.129 237.148 874.613 235.351C870.098 233.554 866.59 230.78 864.09 227.03C861.59 223.28 860.324 218.483 860.293 212.64H878.293C878.418 214.765 878.957 216.562 879.91 218.03C880.863 219.499 882.207 220.608 883.941 221.358C885.676 222.108 887.762 222.483 890.199 222.483C892.23 222.483 893.934 222.233 895.309 221.733C896.684 221.233 897.723 220.538 898.426 219.648C899.129 218.757 899.48 217.733 899.48 216.577C899.48 215.515 899.144 214.585 898.473 213.788C897.801 212.991 896.699 212.265 895.168 211.608C893.637 210.952 891.574 210.358 888.98 209.827L881.949 208.327C875.793 207.015 870.941 204.773 867.394 201.601C863.848 198.429 862.074 194.108 862.074 188.64C862.074 184.202 863.277 180.319 865.684 176.991C868.09 173.663 871.41 171.069 875.644 169.21C879.879 167.351 884.762 166.421 890.293 166.421C895.949 166.421 900.832 167.366 904.941 169.257C909.051 171.148 912.223 173.804 914.457 177.226C916.691 180.648 917.824 184.64 917.855 189.202H899.668C899.512 186.921 898.676 185.148 897.16 183.882C895.644 182.616 893.355 181.983 890.293 181.983C888.355 181.983 886.762 182.21 885.512 182.663C884.262 183.116 883.34 183.749 882.746 184.562C882.152 185.374 881.855 186.296 881.855 187.327C881.855 188.421 882.176 189.382 882.816 190.21C883.457 191.038 884.473 191.757 885.863 192.366C887.254 192.976 889.043 193.515 891.23 193.983L896.949 195.202C900.793 196.015 904.098 197.093 906.863 198.437C909.629 199.78 911.894 201.351 913.66 203.148C915.426 204.944 916.723 206.968 917.551 209.218C918.379 211.468 918.793 213.921 918.793 216.577C918.793 221.171 917.66 225.069 915.394 228.273C913.129 231.476 909.887 233.905 905.668 235.562C901.449 237.218 896.387 238.046 890.48 238.046ZM953.705 238.046C947.705 238.046 942.448 236.991 937.932 234.882C933.416 232.773 929.901 229.773 927.385 225.882C924.869 221.991 923.612 217.39 923.612 212.077V167.358H942.549V210.483C942.549 212.671 943.034 214.601 944.002 216.273C944.971 217.944 946.291 219.257 947.963 220.21C949.635 221.163 951.549 221.64 953.705 221.64C955.893 221.64 957.83 221.163 959.518 220.21C961.205 219.257 962.534 217.944 963.502 216.273C964.471 214.601 964.955 212.671 964.955 210.483V167.358H983.893V212.077C983.893 217.39 982.627 221.991 980.096 225.882C977.565 229.773 974.034 232.773 969.502 234.882C964.971 236.991 959.705 238.046 953.705 238.046ZM986.274 237.202L1008.91 167.358H1034.79L1058.27 237.202H1036.81L1028.7 210.108C1026.95 204.233 1025.31 198.132 1023.77 191.804C1022.24 185.476 1020.79 179.187 1019.41 172.937H1023.73C1022.41 179.187 1021.09 185.476 1019.74 191.804C1018.4 198.132 1016.88 204.233 1015.2 210.108L1007.46 237.202H986.274ZM1003.06 223.796V209.64H1041.49V223.796H1003.06ZM1062.53 237.202V167.358H1092.62C1097.81 167.358 1102.35 168.304 1106.24 170.194C1110.13 172.085 1113.16 174.804 1115.34 178.351C1117.51 181.898 1118.59 186.14 1118.59 191.077C1118.59 196.077 1117.48 200.296 1115.26 203.733C1113.05 207.171 1109.94 209.765 1105.94 211.515C1101.94 213.265 1097.28 214.14 1091.97 214.14H1073.97V199.421H1088.12C1090.37 199.421 1092.3 199.14 1093.89 198.577C1095.48 198.015 1096.7 197.124 1097.55 195.905C1098.39 194.687 1098.81 193.077 1098.81 191.077C1098.81 189.077 1098.39 187.452 1097.55 186.202C1096.7 184.952 1095.48 184.03 1093.89 183.437C1092.3 182.843 1090.37 182.546 1088.12 182.546H1081.47V237.202H1062.53ZM1100.31 237.202L1083.25 205.14H1103.41L1120.94 237.202H1100.31ZM1143.19 167.358V237.202H1124.26V167.358H1143.19ZM1182.51 238.14C1176.17 238.14 1170.43 236.765 1165.29 234.015C1160.14 231.265 1156.07 227.226 1153.07 221.898C1150.07 216.569 1148.57 210.046 1148.57 202.327C1148.57 194.546 1150.07 187.983 1153.07 182.64C1156.07 177.296 1160.14 173.257 1165.29 170.523C1170.43 167.788 1176.17 166.421 1182.51 166.421C1188.86 166.421 1194.59 167.788 1199.71 170.523C1204.84 173.257 1208.91 177.296 1211.93 182.64C1214.94 187.983 1216.45 194.546 1216.45 202.327C1216.45 210.077 1214.94 216.616 1211.93 221.944C1208.91 227.273 1204.84 231.304 1199.71 234.038C1194.59 236.773 1188.86 238.14 1182.51 238.14ZM1182.51 221.64C1185.67 221.64 1188.32 220.898 1190.46 219.413C1192.6 217.929 1194.21 215.749 1195.31 212.874C1196.4 209.999 1196.95 206.483 1196.95 202.327C1196.95 198.14 1196.4 194.601 1195.31 191.71C1194.21 188.819 1192.6 186.632 1190.46 185.148C1188.32 183.663 1185.67 182.921 1182.51 182.921C1179.39 182.921 1176.75 183.663 1174.61 185.148C1172.47 186.632 1170.85 188.819 1169.74 191.71C1168.63 194.601 1168.07 198.14 1168.07 202.327C1168.07 206.483 1168.63 209.999 1169.74 212.874C1170.85 215.749 1172.47 217.929 1174.61 219.413C1176.75 220.898 1179.39 221.64 1182.51 221.64Z" fill="#1A1C1C"/>
<rect x="666" y="266.202" width="96" height="6" rx="3" fill="#B7001A"/>
<path d="M548.79 317.202V295.376H556.609C558.294 295.376 559.697 295.688 560.816 296.311C561.936 296.935 562.775 297.78 563.334 298.846C563.892 299.912 564.172 301.117 564.172 302.462C564.172 303.808 563.891 305.016 563.33 306.086C562.769 307.155 561.927 308.002 560.805 308.626C559.683 309.25 558.276 309.562 556.584 309.562H551.235V306.729H556.26C557.331 306.729 558.2 306.544 558.866 306.175C559.533 305.806 560.019 305.298 560.327 304.653C560.635 304.008 560.789 303.277 560.789 302.462C560.789 301.643 560.635 300.915 560.327 300.279C560.019 299.642 559.531 299.143 558.86 298.78C558.19 298.418 557.315 298.236 556.236 298.236H552.138V317.202H548.79ZM568.54 317.202V300.825H571.762V317.202H568.54ZM570.16 298.327C569.608 298.327 569.132 298.139 568.734 297.764C568.336 297.388 568.137 296.938 568.137 296.413C568.137 295.876 568.336 295.423 568.734 295.053C569.132 294.683 569.608 294.497 570.16 294.497C570.72 294.497 571.2 294.682 571.598 295.053C571.997 295.423 572.196 295.876 572.196 296.412C572.196 296.938 571.997 297.389 571.598 297.764C571.2 298.139 570.72 298.327 570.16 298.327ZM580.07 307.498V317.202H576.848V300.825H579.92L579.954 304.835H579.622C580.097 303.37 580.788 302.302 581.695 301.629C582.602 300.956 583.699 300.62 584.987 300.62C586.101 300.62 587.075 300.854 587.91 301.321C588.744 301.788 589.394 302.48 589.859 303.396C590.323 304.311 590.556 305.445 590.556 306.797V317.202H587.334V307.198C587.334 306.019 587.027 305.096 586.412 304.428C585.798 303.76 584.955 303.426 583.885 303.426C583.158 303.426 582.506 303.585 581.93 303.903C581.353 304.221 580.899 304.683 580.568 305.289C580.236 305.895 580.07 306.631 580.07 307.498ZM602.655 300.825V303.445H593.771V300.825H602.655ZM596.164 296.929H599.386V312.772C599.386 313.434 599.524 313.919 599.8 314.226C600.076 314.533 600.533 314.686 601.172 314.686C601.34 314.686 601.56 314.667 601.833 314.627C602.106 314.587 602.34 314.547 602.535 314.508L603.106 317.091C602.761 317.204 602.392 317.287 602.001 317.338C601.609 317.389 601.226 317.415 600.851 317.415C599.359 317.415 598.205 317.033 597.389 316.27C596.572 315.506 596.164 314.429 596.164 313.038V296.929ZM613.371 317.543C611.759 317.543 610.369 317.195 609.2 316.498C608.032 315.801 607.133 314.822 606.503 313.563C605.873 312.303 605.558 310.825 605.558 309.13C605.558 307.448 605.868 305.969 606.486 304.693C607.105 303.416 607.98 302.418 609.112 301.699C610.244 300.98 611.571 300.62 613.092 300.62C614.028 300.62 614.933 300.773 615.806 301.079C616.679 301.384 617.461 301.865 618.154 302.52C618.847 303.176 619.396 304.025 619.801 305.068C620.206 306.111 620.408 307.371 620.408 308.848V309.992H607.351V307.586H618.747L617.243 308.38C617.243 307.379 617.087 306.496 616.776 305.73C616.464 304.963 616.002 304.364 615.389 303.933C614.776 303.501 614.014 303.286 613.103 303.286C612.192 303.286 611.414 303.505 610.769 303.945C610.124 304.384 609.632 304.963 609.292 305.681C608.953 306.4 608.783 307.183 608.783 308.031V309.666C608.783 310.79 608.976 311.74 609.362 312.518C609.747 313.296 610.288 313.884 610.984 314.281C611.681 314.679 612.487 314.878 613.404 314.878C614.005 314.878 614.551 314.792 615.042 314.619C615.533 314.447 615.956 314.188 616.311 313.842C616.665 313.495 616.937 313.067 617.126 312.556L620.15 313.27C619.892 314.118 619.453 314.863 618.832 315.505C618.21 316.147 617.438 316.647 616.515 317.005C615.591 317.364 614.543 317.543 613.371 317.543ZM624.684 317.202V300.825H627.803V303.456H627.978C628.279 302.566 628.807 301.867 629.56 301.358C630.314 300.85 631.169 300.596 632.126 300.596C632.332 300.596 632.568 300.604 632.834 300.619C633.1 300.634 633.318 300.652 633.488 300.674V303.75C633.372 303.715 633.147 303.677 632.814 303.637C632.481 303.597 632.144 303.577 631.801 303.577C631.057 303.577 630.389 303.735 629.798 304.05C629.207 304.364 628.744 304.798 628.409 305.35C628.074 305.902 627.906 306.538 627.906 307.259V317.202H624.684ZM643.523 317.543C641.912 317.543 640.521 317.195 639.353 316.498C638.184 315.801 637.285 314.822 636.655 313.563C636.025 312.303 635.711 310.825 635.711 309.13C635.711 307.448 636.02 305.969 636.639 304.693C637.257 303.416 638.133 302.418 639.265 301.699C640.397 300.98 641.724 300.62 643.245 300.62C644.181 300.62 645.085 300.773 645.958 301.079C646.831 301.384 647.614 301.865 648.307 302.52C648.999 303.176 649.548 304.025 649.953 305.068C650.358 306.111 650.561 307.371 650.561 308.848V309.992H637.503V307.586H648.9L647.395 308.38C647.395 307.379 647.239 306.496 646.928 305.73C646.616 304.963 646.154 304.364 645.541 303.933C644.928 303.501 644.166 303.286 643.255 303.286C642.345 303.286 641.567 303.505 640.922 303.945C640.276 304.384 639.784 304.963 639.445 305.681C639.105 306.4 638.936 307.183 638.936 308.031V309.666C638.936 310.79 639.128 311.74 639.514 312.518C639.9 313.296 640.441 313.884 641.137 314.281C641.833 314.679 642.64 314.878 643.557 314.878C644.157 314.878 644.703 314.792 645.194 314.619C645.686 314.447 646.109 314.188 646.463 313.842C646.818 313.495 647.089 313.067 647.279 312.556L650.302 313.27C650.045 314.118 649.605 314.863 648.984 315.505C648.363 316.147 647.59 316.647 646.667 317.005C645.744 317.364 644.696 317.543 643.523 317.543ZM660.717 317.543C659.529 317.543 658.474 317.371 657.553 317.027C656.631 316.684 655.874 316.178 655.282 315.509C654.691 314.841 654.298 314.026 654.104 313.064L657.139 312.429C657.366 313.282 657.786 313.911 658.398 314.318C659.009 314.725 659.79 314.928 660.74 314.928C661.781 314.928 662.609 314.712 663.223 314.28C663.838 313.848 664.145 313.326 664.145 312.714C664.145 312.193 663.956 311.762 663.577 311.42C663.198 311.078 662.618 310.821 661.838 310.648L659.081 310.024C657.565 309.681 656.436 309.135 655.694 308.386C654.952 307.636 654.581 306.673 654.581 305.496C654.581 304.521 654.852 303.669 655.395 302.938C655.937 302.207 656.684 301.638 657.636 301.231C658.588 300.824 659.68 300.62 660.915 300.62C662.096 300.62 663.106 300.792 663.946 301.136C664.786 301.48 665.467 301.958 665.99 302.569C666.513 303.18 666.89 303.891 667.12 304.703L664.228 305.342C664.021 304.765 663.665 304.258 663.159 303.82C662.653 303.383 661.916 303.165 660.948 303.165C660.056 303.165 659.312 303.365 658.716 303.766C658.12 304.167 657.822 304.678 657.822 305.3C657.822 305.841 658.021 306.28 658.419 306.619C658.817 306.958 659.464 307.23 660.36 307.433L662.991 308.019C664.509 308.36 665.634 308.898 666.367 309.633C667.1 310.367 667.467 311.304 667.467 312.443C667.467 313.439 667.182 314.32 666.612 315.086C666.042 315.853 665.249 316.454 664.234 316.889C663.22 317.325 662.047 317.543 660.717 317.543ZM678.753 300.825V303.445H669.87V300.825H678.753ZM672.263 296.929H675.485V312.772C675.485 313.434 675.622 313.919 675.898 314.226C676.174 314.533 676.632 314.686 677.27 314.686C677.438 314.686 677.659 314.667 677.931 314.627C678.204 314.587 678.438 314.547 678.634 314.508L679.205 317.091C678.859 317.204 678.491 317.287 678.099 317.338C677.708 317.389 677.325 317.415 676.949 317.415C675.458 317.415 674.304 317.033 673.487 316.27C672.671 315.506 672.263 314.429 672.263 313.038V296.929ZM700.768 317.495C698.88 317.495 697.195 317.047 695.712 316.152C694.229 315.257 693.062 313.972 692.211 312.299C691.361 310.626 690.935 308.628 690.935 306.304C690.935 303.968 691.362 301.963 692.215 300.29C693.069 298.616 694.237 297.329 695.721 296.431C697.205 295.532 698.887 295.083 700.768 295.083C701.917 295.083 702.998 295.248 704.009 295.578C705.02 295.909 705.924 296.391 706.721 297.026C707.519 297.661 708.18 298.433 708.705 299.343C709.23 300.252 709.585 301.286 709.77 302.444H706.406C706.268 301.743 706.027 301.126 705.684 300.593C705.342 300.06 704.92 299.609 704.419 299.239C703.919 298.87 703.361 298.592 702.746 298.405C702.132 298.218 701.483 298.125 700.8 298.125C699.549 298.125 698.429 298.441 697.441 299.073C696.452 299.704 695.674 300.628 695.106 301.843C694.538 303.059 694.254 304.546 694.254 306.304C694.254 308.064 694.541 309.552 695.114 310.767C695.688 311.981 696.468 312.9 697.455 313.521C698.442 314.142 699.555 314.453 700.794 314.453C701.477 314.453 702.126 314.358 702.74 314.167C703.354 313.977 703.912 313.699 704.414 313.333C704.917 312.968 705.34 312.516 705.684 311.979C706.029 311.442 706.271 310.827 706.412 310.134H709.775C709.61 311.214 709.274 312.202 708.766 313.096C708.257 313.991 707.608 314.768 706.819 315.429C706.03 316.089 705.125 316.598 704.103 316.957C703.081 317.316 701.969 317.495 700.768 317.495ZM717.426 295.376V317.202H714.204V295.376H717.426ZM729.399 317.543C727.862 317.543 726.521 317.191 725.375 316.487C724.23 315.783 723.341 314.797 722.708 313.528C722.075 312.26 721.758 310.785 721.758 309.106C721.758 307.402 722.075 305.914 722.708 304.641C723.341 303.369 724.23 302.38 725.375 301.676C726.521 300.972 727.862 300.62 729.399 300.62C730.944 300.62 732.291 300.972 733.438 301.676C734.586 302.38 735.476 303.369 736.109 304.641C736.742 305.914 737.058 307.402 737.058 309.106C737.058 310.785 736.742 312.26 736.109 313.528C735.476 314.797 734.586 315.783 733.438 316.487C732.291 317.191 730.944 317.543 729.399 317.543ZM729.399 314.818C730.395 314.818 731.219 314.557 731.869 314.035C732.52 313.512 733.003 312.818 733.318 311.951C733.634 311.084 733.791 310.134 733.791 309.1C733.791 308.057 733.634 307.099 733.318 306.227C733.003 305.355 732.52 304.657 731.869 304.132C731.219 303.607 730.395 303.345 729.399 303.345C728.409 303.345 727.592 303.607 726.949 304.132C726.306 304.657 725.826 305.353 725.511 306.221C725.195 307.089 725.038 308.049 725.038 309.1C725.038 310.134 725.195 311.084 725.511 311.951C725.826 312.818 726.306 313.512 726.949 314.035C727.592 314.557 728.409 314.818 729.399 314.818ZM744.605 307.498V317.202H741.383V300.825H744.455L744.488 304.835H744.156C744.631 303.37 745.322 302.302 746.229 301.629C747.136 300.956 748.234 300.62 749.521 300.62C750.635 300.62 751.61 300.854 752.444 301.321C753.279 301.788 753.928 302.48 754.393 303.396C754.858 304.311 755.09 305.445 755.09 306.797V317.202H751.868V307.198C751.868 306.019 751.561 305.096 750.946 304.428C750.332 303.76 749.49 303.426 748.419 303.426C747.692 303.426 747.041 303.585 746.464 303.903C745.887 304.221 745.433 304.683 745.102 305.289C744.77 305.895 744.605 306.631 744.605 307.498ZM767.238 317.543C765.626 317.543 764.236 317.195 763.068 316.498C761.899 315.801 761 314.822 760.37 313.563C759.74 312.303 759.425 310.825 759.425 309.13C759.425 307.448 759.735 305.969 760.353 304.693C760.972 303.416 761.847 302.418 762.98 301.699C764.112 300.98 765.438 300.62 766.96 300.62C767.896 300.62 768.8 300.773 769.673 301.079C770.546 301.384 771.329 301.865 772.021 302.52C772.714 303.176 773.263 304.025 773.668 305.068C774.073 306.111 774.275 307.371 774.275 308.848V309.992H761.218V307.586H772.615L771.11 308.38C771.11 307.379 770.954 306.496 770.643 305.73C770.331 304.963 769.869 304.364 769.256 303.933C768.643 303.501 767.881 303.286 766.97 303.286C766.059 303.286 765.282 303.505 764.636 303.945C763.991 304.384 763.499 304.963 763.16 305.681C762.82 306.4 762.65 307.183 762.65 308.031V309.666C762.65 310.79 762.843 311.74 763.229 312.518C763.614 313.296 764.155 313.884 764.852 314.281C765.548 314.679 766.354 314.878 767.271 314.878C767.872 314.878 768.418 314.792 768.909 314.619C769.401 314.447 769.823 314.188 770.178 313.842C770.532 313.495 770.804 313.067 770.994 312.556L774.017 313.27C773.76 314.118 773.32 314.863 772.699 315.505C772.078 316.147 771.305 316.647 770.382 317.005C769.458 317.364 768.411 317.543 767.238 317.543ZM796.92 306.604V309.394H787.224V306.604H796.92ZM819.614 317.538C817.867 317.538 816.34 317.202 815.033 316.531C813.726 315.86 812.713 314.934 811.995 313.755C811.277 312.575 810.918 311.223 810.918 309.699V295.376H814.266V309.429C814.266 310.409 814.483 311.28 814.918 312.043C815.353 312.806 815.97 313.406 816.768 313.844C817.567 314.282 818.516 314.501 819.614 314.501C820.714 314.501 821.662 314.282 822.457 313.844C823.253 313.406 823.866 312.806 824.297 312.043C824.728 311.28 824.943 310.409 824.943 309.429V295.376H828.291V309.699C828.291 311.223 827.931 312.575 827.212 313.755C826.493 314.934 825.484 315.86 824.184 316.531C822.884 317.202 821.361 317.538 819.614 317.538ZM837.223 295.376V317.202H833.875V295.376H837.223ZM849.898 317.202H844.498V314.277H849.712C851.364 314.277 852.738 313.968 853.833 313.35C854.928 312.732 855.747 311.826 856.292 310.631C856.837 309.436 857.109 307.978 857.109 306.256C857.109 304.548 856.838 303.103 856.295 301.92C855.753 300.737 854.949 299.838 853.882 299.223C852.816 298.608 851.487 298.301 849.896 298.301H844.386V295.376H850.11C852.26 295.376 854.101 295.811 855.631 296.681C857.162 297.551 858.338 298.8 859.159 300.426C859.979 302.053 860.389 303.996 860.389 306.256C860.389 308.529 859.978 310.484 859.154 312.118C858.33 313.753 857.136 315.009 855.571 315.886C854.006 316.764 852.115 317.202 849.898 317.202ZM846.146 295.376V317.202H842.799V295.376H846.146ZM865.199 317.202V295.376H878.938V298.254H868.547V304.756H878.202V307.612H868.547V314.325H879.035V317.202H865.199Z" fill="#5E3F3C"/>
<g filter="url(#filter0_f_57_2644)">
<rect x="474" y="370.202" width="480" height="480" rx="160" fill="#B7001A" fill-opacity="0.05"/>
</g>
<g filter="url(#filter1_d_57_2644)">
<rect x="554" y="450.202" width="320" height="320" rx="160" fill="#B7001A" shape-rendering="crispEdges"/>
<path d="M740.667 603.536L754 616.869V630.202H720.667V670.202L714 676.869L707.333 670.202V630.202H674V616.869L687.333 603.536V556.869H680.667V543.536H747.333V556.869H740.667V603.536Z" fill="white"/>
</g>
<g filter="url(#filter2_d_57_2644)">
<rect x="849.35" y="396.252" width="64" height="64" rx="12" transform="rotate(12 849.35 396.252)" fill="#E8E8E8" shape-rendering="crispEdges"/>
<rect x="849.735" y="396.845" width="63" height="63" rx="11.5" transform="rotate(12 849.735 396.845)" stroke="#E8BCB8" stroke-opacity="0.2" shape-rendering="crispEdges"/>
<path d="M863.099 443.391C862.427 443.248 861.902 442.886 861.525 442.306C861.148 441.725 861.031 441.098 861.174 440.426L864.812 423.308C864.955 422.636 865.317 422.111 865.898 421.734C866.478 421.357 867.105 421.24 867.777 421.383L884.895 425.021C885.567 425.164 886.092 425.526 886.469 426.107C886.846 426.687 886.964 427.314 886.821 427.986L883.182 445.104C883.039 445.776 882.677 446.301 882.097 446.678C881.516 447.055 880.889 447.172 880.217 447.029L863.099 443.391ZM863.619 440.946L880.737 444.584L884.375 427.467L867.258 423.828L863.619 440.946ZM865.362 438.76L880.034 441.879L876.748 434.791L872.041 438.902L870.069 434.649L865.362 438.76ZM863.619 440.946L867.258 423.828L863.619 440.946Z" fill="#B7001A"/>
</g>
<rect x="498.561" y="723.392" width="80" height="80" rx="40" transform="rotate(-12 498.561 723.392)" fill="white"/>
<rect x="499.154" y="723.777" width="79" height="79" rx="39.5" transform="rotate(-12 499.154 723.777)" stroke="#E8BCB8" stroke-opacity="0.2"/>
<g filter="url(#filter3_dd_57_2644)">
<rect x="498.561" y="723.392" width="80" height="80" rx="40" transform="rotate(-12 498.561 723.392)" fill="white" fill-opacity="0.01" shape-rendering="crispEdges"/>
</g>
<path d="M548.864 767.663L546.331 766.208C543.388 764.508 540.938 763.022 538.981 761.751C537.024 760.481 535.432 759.305 534.206 758.223C532.979 757.142 532.062 756.104 531.454 755.109C530.847 754.113 530.423 753.053 530.184 751.928C529.695 749.63 530.058 747.546 531.271 745.678C532.484 743.81 534.24 742.632 536.538 742.143C537.81 741.873 539.078 741.885 540.341 742.178C541.605 742.472 542.757 743.02 543.796 743.821C544.419 742.666 545.249 741.698 546.284 740.915C547.319 740.133 548.472 739.607 549.743 739.336C552.042 738.848 554.125 739.21 555.994 740.423C557.862 741.636 559.04 743.392 559.528 745.691C559.768 746.816 559.812 747.957 559.662 749.113C559.511 750.27 559.096 751.591 558.415 753.078C557.734 754.564 556.758 756.286 555.487 758.243C554.216 760.2 552.583 762.554 550.586 765.304L548.864 767.663ZM548.022 763.702C549.922 761.1 551.471 758.886 552.667 757.06C553.864 755.233 554.784 753.671 555.428 752.371C556.071 751.071 556.472 749.951 556.63 749.01C556.788 748.069 556.776 747.171 556.594 746.315C556.282 744.847 555.533 743.729 554.347 742.958C553.161 742.188 551.834 741.959 550.367 742.271C549.218 742.515 548.223 743.065 547.383 743.921C546.542 744.777 546.045 745.745 545.891 746.826L543.104 747.419C542.524 746.494 541.676 745.812 540.56 745.371C539.444 744.931 538.312 744.833 537.162 745.078C535.695 745.39 534.576 746.139 533.806 747.325C533.036 748.511 532.807 749.837 533.118 751.305C533.3 752.16 533.655 752.986 534.182 753.781C534.709 754.577 535.53 755.437 536.647 756.363C537.764 757.288 539.24 758.342 541.076 759.523C542.912 760.705 545.227 762.098 548.022 763.702Z" fill="#B7001A"/>
<path d="M509.485 934.773C510.657 934.773 511.563 934.444 512.204 933.788C512.845 933.132 513.165 932.167 513.165 930.894V921.648L511.056 921.343V920.487H516.399V921.343L514.618 921.648V930.8C514.618 932.612 514.095 934.003 513.048 934.972C512.001 935.94 510.505 936.425 508.56 936.425C506.458 936.425 504.847 935.935 503.726 934.954C502.604 933.974 502.044 932.558 502.044 930.706V921.648L500.263 921.343V920.487H507.751V921.343L505.735 921.648V930.87C505.735 932.128 506.054 933.093 506.69 933.765C507.327 934.437 508.259 934.773 509.485 934.773ZM520.883 926.148L521.68 925.737C522.774 925.175 523.758 924.894 524.633 924.894C526.664 924.894 527.68 925.976 527.68 928.14V935.148L528.781 935.429V936.202H523.309V935.429L524.293 935.148V928.597C524.293 927.94 524.154 927.429 523.877 927.062C523.6 926.694 523.203 926.511 522.688 926.511C522.094 926.511 521.5 926.644 520.906 926.909V935.148L521.914 935.429V936.202H516.442V935.429L517.52 935.148V926.241L516.442 925.96V925.187H520.719L520.883 926.148ZM533.054 935.148L534.261 935.429V936.202H528.472V935.429L529.667 935.148V926.241L528.542 925.96V925.187H533.054V935.148ZM529.55 921.343C529.55 920.835 529.728 920.409 530.083 920.065C530.439 919.722 530.863 919.55 531.355 919.55C531.855 919.55 532.279 919.724 532.626 920.071C532.974 920.419 533.148 920.843 533.148 921.343C533.148 921.835 532.976 922.259 532.632 922.614C532.288 922.97 531.863 923.148 531.355 923.148C530.855 923.148 530.429 922.974 530.077 922.626C529.726 922.278 529.55 921.851 529.55 921.343ZM540.21 936.437H538.792L534.186 926.241L533.413 925.96V925.187H539.049V925.96L537.737 926.265L540.561 932.546L543.104 926.241L541.815 925.96V925.187H545.413V925.96L544.616 926.194L540.21 936.437ZM550.002 924.917C551.494 924.917 552.574 925.315 553.242 926.112C553.91 926.909 554.244 928.148 554.244 929.827V930.788H548.467V930.976C548.467 932.14 548.56 932.968 548.748 933.46C548.935 933.952 549.24 934.327 549.662 934.585C550.084 934.843 550.662 934.972 551.396 934.972C552.084 934.972 552.951 934.858 553.998 934.632V935.534C553.568 935.792 553.011 936.005 552.328 936.173C551.644 936.341 550.978 936.425 550.33 936.425C548.525 936.425 547.191 935.954 546.328 935.013C545.465 934.071 545.033 932.612 545.033 930.636C545.033 928.714 545.445 927.28 546.269 926.335C547.094 925.39 548.338 924.917 550.002 924.917ZM549.873 926.101C549.404 926.101 549.054 926.355 548.824 926.862C548.594 927.37 548.478 928.269 548.478 929.558H551.033C551.033 928.511 550.998 927.774 550.928 927.349C550.857 926.923 550.738 926.608 550.57 926.405C550.402 926.202 550.17 926.101 549.873 926.101ZM559.067 927.472C559.911 926.534 560.667 925.86 561.335 925.45C562.003 925.04 562.614 924.835 563.169 924.835H563.802V928.855H563.145L562.454 927.378C561.962 927.378 561.403 927.485 560.778 927.7C560.153 927.915 559.603 928.167 559.126 928.456V935.148L560.895 935.429V936.202H554.31V935.429L555.739 935.148V926.241L554.31 925.96V925.187H558.938L559.067 927.472ZM571.871 932.71C571.871 933.937 571.494 934.864 570.74 935.493C569.986 936.122 568.891 936.437 567.453 936.437C566.86 936.437 566.205 936.372 565.49 936.243C564.776 936.114 564.235 935.98 563.867 935.839V932.839H564.641L565.086 934.386C565.36 934.659 565.719 934.888 566.164 935.071C566.61 935.255 567.063 935.347 567.524 935.347C568.203 935.347 568.709 935.2 569.041 934.907C569.373 934.614 569.539 934.241 569.539 933.788C569.539 933.358 569.379 933.015 569.059 932.757C568.738 932.499 568.039 932.202 566.961 931.866C565.828 931.515 565.026 931.034 564.553 930.425C564.08 929.815 563.844 929.065 563.844 928.175C563.844 927.175 564.215 926.378 564.957 925.784C565.699 925.19 566.656 924.894 567.828 924.894C568.633 924.894 569.715 925.007 571.074 925.233V928.058H570.301L569.926 926.769C569.699 926.542 569.381 926.357 568.971 926.212C568.561 926.067 568.172 925.995 567.805 925.995C567.242 925.995 566.826 926.11 566.557 926.341C566.287 926.571 566.153 926.886 566.153 927.284C566.153 927.698 566.32 928.038 566.656 928.304C566.992 928.569 567.684 928.858 568.731 929.171C569.871 929.523 570.68 929.985 571.156 930.56C571.633 931.134 571.871 931.851 571.871 932.71ZM576.367 935.148L577.574 935.429V936.202H571.785V935.429L572.98 935.148V926.241L571.855 925.96V925.187H576.367V935.148ZM572.863 921.343C572.863 920.835 573.04 920.409 573.396 920.065C573.751 919.722 574.175 919.55 574.667 919.55C575.167 919.55 575.591 919.724 575.939 920.071C576.286 920.419 576.46 920.843 576.46 921.343C576.46 921.835 576.288 922.259 575.945 922.614C575.601 922.97 575.175 923.148 574.667 923.148C574.167 923.148 573.742 922.974 573.39 922.626C573.038 922.278 572.863 921.851 572.863 921.343ZM585.315 935.581C584.878 935.862 584.542 936.048 584.307 936.138C584.073 936.228 583.807 936.3 583.51 936.355C583.213 936.409 582.885 936.437 582.526 936.437C580.901 936.437 579.69 935.97 578.893 935.036C578.096 934.103 577.698 932.667 577.698 930.73C577.698 928.823 578.126 927.374 578.981 926.382C579.836 925.39 581.077 924.894 582.702 924.894C583.553 924.894 584.413 924.999 585.28 925.21C585.233 924.952 585.21 924.347 585.21 923.394V920.605L584.085 920.323V919.55H588.596V935.148L589.803 935.429V936.202H585.561L585.315 935.581ZM581.131 930.636C581.131 932.097 581.315 933.212 581.682 933.982C582.049 934.751 582.577 935.136 583.264 935.136C583.889 935.136 584.538 934.968 585.21 934.632V926.335C584.6 926.171 583.983 926.089 583.358 926.089C582.655 926.089 582.108 926.474 581.717 927.243C581.327 928.013 581.131 929.144 581.131 930.636ZM595.271 924.94C598.029 924.94 599.408 925.956 599.408 927.987V935.148L600.51 935.429V936.202H596.455L596.197 935.358C595.588 935.773 595.037 936.056 594.545 936.208C594.052 936.36 593.556 936.437 593.056 936.437C590.783 936.437 589.646 935.343 589.646 933.155C589.646 932.327 589.814 931.665 590.15 931.169C590.486 930.673 590.97 930.306 591.603 930.067C592.236 929.829 593.232 929.694 594.592 929.663L596.021 929.628V928.023C596.021 926.694 595.478 926.03 594.392 926.03C593.736 926.03 593.002 926.233 592.189 926.64L591.744 928.011H590.97V925.351C592.15 925.171 593.017 925.058 593.572 925.011C594.127 924.964 594.693 924.94 595.271 924.94ZM596.021 930.671L595.037 930.706C594.279 930.737 593.754 930.937 593.461 931.304C593.168 931.671 593.021 932.265 593.021 933.085C593.021 933.749 593.138 934.237 593.373 934.55C593.607 934.862 593.912 935.019 594.287 935.019C594.818 935.019 595.396 934.882 596.021 934.608V930.671ZM608.263 935.581C607.825 935.862 607.489 936.048 607.255 936.138C607.02 936.228 606.755 936.3 606.458 936.355C606.161 936.409 605.833 936.437 605.474 936.437C603.849 936.437 602.638 935.97 601.841 935.036C601.044 934.103 600.645 932.667 600.645 930.73C600.645 928.823 601.073 927.374 601.929 926.382C602.784 925.39 604.024 924.894 605.649 924.894C606.501 924.894 607.36 924.999 608.228 925.21C608.181 924.952 608.157 924.347 608.157 923.394V920.605L607.032 920.323V919.55H611.544V935.148L612.751 935.429V936.202H608.509L608.263 935.581ZM604.079 930.636C604.079 932.097 604.263 933.212 604.63 933.982C604.997 934.751 605.524 935.136 606.212 935.136C606.837 935.136 607.485 934.968 608.157 934.632V926.335C607.548 926.171 606.931 926.089 606.306 926.089C605.603 926.089 605.056 926.474 604.665 927.243C604.274 928.013 604.079 929.144 604.079 930.636ZM623.136 935.03L625.152 935.335V936.202H617.429V935.335L619.445 935.03V921.659L617.429 921.343V920.487H625.152V921.343L623.136 921.659V935.03ZM629.846 926.148L630.643 925.737C631.737 925.175 632.721 924.894 633.596 924.894C635.628 924.894 636.643 925.976 636.643 928.14V935.148L637.745 935.429V936.202H632.272V935.429L633.256 935.148V928.597C633.256 927.94 633.118 927.429 632.84 927.062C632.563 926.694 632.167 926.511 631.651 926.511C631.057 926.511 630.463 926.644 629.87 926.909V935.148L630.878 935.429V936.202H625.405V935.429L626.483 935.148V926.241L625.405 925.96V925.187H629.682L629.846 926.148ZM642.041 936.437C640.986 936.437 640.172 936.198 639.597 935.722C639.023 935.245 638.736 934.558 638.736 933.659V926.405H637.295V925.644L638.994 925.187L640.365 922.69H642.123V925.187H644.443V926.405H642.123V933.448C642.123 933.956 642.228 934.339 642.439 934.597C642.65 934.855 642.928 934.983 643.271 934.983C643.685 934.983 644.193 934.921 644.795 934.796V935.792C644.56 935.956 644.16 936.105 643.594 936.237C643.027 936.37 642.51 936.437 642.041 936.437ZM649.489 924.917C650.981 924.917 652.061 925.315 652.729 926.112C653.397 926.909 653.731 928.148 653.731 929.827V930.788H647.954V930.976C647.954 932.14 648.048 932.968 648.235 933.46C648.423 933.952 648.727 934.327 649.149 934.585C649.571 934.843 650.149 934.972 650.884 934.972C651.571 934.972 652.438 934.858 653.485 934.632V935.534C653.056 935.792 652.499 936.005 651.815 936.173C651.132 936.341 650.466 936.425 649.817 936.425C648.013 936.425 646.679 935.954 645.815 935.013C644.952 934.071 644.52 932.612 644.52 930.636C644.52 928.714 644.933 927.28 645.757 926.335C646.581 925.39 647.825 924.917 649.489 924.917ZM649.36 926.101C648.892 926.101 648.542 926.355 648.311 926.862C648.081 927.37 647.966 928.269 647.966 929.558H650.52C650.52 928.511 650.485 927.774 650.415 927.349C650.345 926.923 650.226 926.608 650.058 926.405C649.89 926.202 649.657 926.101 649.36 926.101ZM658.555 927.472C659.399 926.534 660.154 925.86 660.822 925.45C661.49 925.04 662.102 924.835 662.656 924.835H663.289V928.855H662.633L661.942 927.378C661.449 927.378 660.891 927.485 660.266 927.7C659.641 927.915 659.09 928.167 658.613 928.456V935.148L660.383 935.429V936.202H653.797V935.429L655.227 935.148V926.241L653.797 925.96V925.187H658.426L658.555 927.472ZM667.691 926.148L668.488 925.737C669.581 925.175 670.566 924.894 671.441 924.894C673.472 924.894 674.488 925.976 674.488 928.14V935.148L675.589 935.429V936.202H670.117V935.429L671.101 935.148V928.597C671.101 927.94 670.962 927.429 670.685 927.062C670.408 926.694 670.011 926.511 669.495 926.511C668.902 926.511 668.308 926.644 667.714 926.909V935.148L668.722 935.429V936.202H663.249V935.429L664.327 935.148V926.241L663.249 925.96V925.187H667.527L667.691 926.148ZM681.151 924.94C683.909 924.94 685.288 925.956 685.288 927.987V935.148L686.389 935.429V936.202H682.335L682.077 935.358C681.467 935.773 680.917 936.056 680.424 936.208C679.932 936.36 679.436 936.437 678.936 936.437C676.663 936.437 675.526 935.343 675.526 933.155C675.526 932.327 675.694 931.665 676.03 931.169C676.366 930.673 676.85 930.306 677.483 930.067C678.116 929.829 679.112 929.694 680.471 929.663L681.901 929.628V928.023C681.901 926.694 681.358 926.03 680.272 926.03C679.616 926.03 678.881 926.233 678.069 926.64L677.624 928.011H676.85V925.351C678.03 925.171 678.897 925.058 679.452 925.011C680.006 924.964 680.573 924.94 681.151 924.94ZM681.901 930.671L680.917 930.706C680.159 930.737 679.633 930.937 679.34 931.304C679.047 931.671 678.901 932.265 678.901 933.085C678.901 933.749 679.018 934.237 679.253 934.55C679.487 934.862 679.792 935.019 680.167 935.019C680.698 935.019 681.276 934.882 681.901 934.608V930.671ZM695.607 935.534C695.256 935.815 694.769 936.034 694.148 936.19C693.527 936.347 692.888 936.425 692.232 936.425C690.271 936.425 688.804 935.952 687.832 935.007C686.859 934.062 686.373 932.616 686.373 930.671C686.373 929.46 686.594 928.423 687.035 927.56C687.476 926.696 688.107 926.036 688.928 925.579C689.748 925.122 690.701 924.894 691.787 924.894C692.881 924.894 694.072 925.03 695.361 925.304V928.562H694.517L694.025 926.628C693.76 926.433 693.498 926.296 693.24 926.218C692.982 926.14 692.642 926.101 692.22 926.101C691.76 926.101 691.342 926.284 690.967 926.651C690.592 927.019 690.301 927.536 690.094 928.204C689.886 928.872 689.783 929.671 689.783 930.601C689.783 932.171 690.027 933.292 690.515 933.964C691.004 934.636 691.779 934.972 692.842 934.972C693.92 934.972 694.842 934.858 695.607 934.632V935.534ZM700.114 935.148L701.321 935.429V936.202H695.532V935.429L696.727 935.148V926.241L695.602 925.96V925.187H700.114V935.148ZM696.61 921.343C696.61 920.835 696.788 920.409 697.144 920.065C697.499 919.722 697.923 919.55 698.415 919.55C698.915 919.55 699.339 919.724 699.686 920.071C700.034 920.419 700.208 920.843 700.208 921.343C700.208 921.835 700.036 922.259 699.692 922.614C699.349 922.97 698.923 923.148 698.415 923.148C697.915 923.148 697.489 922.974 697.138 922.626C696.786 922.278 696.61 921.851 696.61 921.343ZM711.559 930.636C711.559 932.612 711.135 934.073 710.287 935.019C709.44 935.964 708.145 936.437 706.402 936.437C704.715 936.437 703.457 935.958 702.629 935.001C701.801 934.044 701.387 932.589 701.387 930.636C701.387 928.69 701.807 927.247 702.647 926.306C703.486 925.364 704.77 924.894 706.496 924.894C708.238 924.894 709.518 925.38 710.334 926.353C711.151 927.325 711.559 928.753 711.559 930.636ZM708.125 930.636C708.125 928.917 707.998 927.728 707.744 927.067C707.49 926.407 707.051 926.077 706.426 926.077C705.824 926.077 705.406 926.394 705.172 927.026C704.938 927.659 704.82 928.862 704.82 930.636C704.82 932.44 704.94 933.663 705.178 934.304C705.416 934.944 705.832 935.265 706.426 935.265C707.043 935.265 707.481 934.927 707.738 934.251C707.996 933.575 708.125 932.37 708.125 930.636ZM716.359 926.148L717.156 925.737C718.249 925.175 719.234 924.894 720.109 924.894C722.14 924.894 723.156 925.976 723.156 928.14V935.148L724.257 935.429V936.202H718.785V935.429L719.769 935.148V928.597C719.769 927.94 719.63 927.429 719.353 927.062C719.076 926.694 718.679 926.511 718.163 926.511C717.57 926.511 716.976 926.644 716.382 926.909V935.148L717.39 935.429V936.202H711.917V935.429L712.995 935.148V926.241L711.917 925.96V925.187H716.195L716.359 926.148ZM729.819 924.94C732.577 924.94 733.956 925.956 733.956 927.987V935.148L735.057 935.429V936.202H731.003L730.745 935.358C730.135 935.773 729.585 936.056 729.092 936.208C728.6 936.36 728.104 936.437 727.604 936.437C725.331 936.437 724.194 935.343 724.194 933.155C724.194 932.327 724.362 931.665 724.698 931.169C725.034 930.673 725.518 930.306 726.151 930.067C726.784 929.829 727.78 929.694 729.139 929.663L730.569 929.628V928.023C730.569 926.694 730.026 926.03 728.94 926.03C728.284 926.03 727.549 926.233 726.737 926.64L726.292 928.011H725.518V925.351C726.698 925.171 727.565 925.058 728.12 925.011C728.674 924.964 729.241 924.94 729.819 924.94ZM730.569 930.671L729.585 930.706C728.827 930.737 728.301 930.937 728.008 931.304C727.715 931.671 727.569 932.265 727.569 933.085C727.569 933.749 727.686 934.237 727.92 934.55C728.155 934.862 728.46 935.019 728.835 935.019C729.366 935.019 729.944 934.882 730.569 934.608V930.671ZM739.271 935.148L740.478 935.429V936.202H734.689V935.429L735.885 935.148V920.605L734.76 920.323V919.55H739.271V935.148ZM753.078 935.581C752.641 935.862 752.305 936.048 752.07 936.138C751.836 936.228 751.57 936.3 751.274 936.355C750.977 936.409 750.649 936.437 750.289 936.437C748.664 936.437 747.453 935.97 746.656 935.036C745.86 934.103 745.461 932.667 745.461 930.73C745.461 928.823 745.889 927.374 746.744 926.382C747.6 925.39 748.84 924.894 750.465 924.894C751.317 924.894 752.176 924.999 753.043 925.21C752.996 924.952 752.973 924.347 752.973 923.394V920.605L751.848 920.323V919.55H756.36V935.148L757.567 935.429V936.202H753.324L753.078 935.581ZM748.895 930.636C748.895 932.097 749.078 933.212 749.445 933.982C749.813 934.751 750.34 935.136 751.027 935.136C751.652 935.136 752.301 934.968 752.973 934.632V926.335C752.363 926.171 751.746 926.089 751.121 926.089C750.418 926.089 749.871 926.474 749.481 927.243C749.09 928.013 748.895 929.144 748.895 930.636ZM762.425 924.917C763.917 924.917 764.997 925.315 765.665 926.112C766.333 926.909 766.667 928.148 766.667 929.827V930.788H760.89V930.976C760.89 932.14 760.984 932.968 761.171 933.46C761.359 933.952 761.663 934.327 762.085 934.585C762.507 934.843 763.085 934.972 763.82 934.972C764.507 934.972 765.374 934.858 766.421 934.632V935.534C765.992 935.792 765.435 936.005 764.751 936.173C764.068 936.341 763.402 936.425 762.753 936.425C760.949 936.425 759.615 935.954 758.751 935.013C757.888 934.071 757.456 932.612 757.456 930.636C757.456 928.714 757.869 927.28 758.693 926.335C759.517 925.39 760.761 924.917 762.425 924.917ZM762.296 926.101C761.828 926.101 761.478 926.355 761.247 926.862C761.017 927.37 760.902 928.269 760.902 929.558H763.456C763.456 928.511 763.421 927.774 763.351 927.349C763.281 926.923 763.161 926.608 762.994 926.405C762.826 926.202 762.593 926.101 762.296 926.101ZM771.139 935.148L772.346 935.429V936.202H766.557V935.429L767.753 935.148V920.605L766.628 920.323V919.55H771.139V935.148ZM776.767 935.347L778.782 935.03V921.648L776.767 921.343V920.487H790.149V924.483H789.083L788.708 921.94C787.833 921.831 786.567 921.776 784.911 921.776H782.474V927.542H786.587L786.95 925.808H787.993V930.636H786.95L786.587 928.855H782.474V934.913H785.438C787.454 934.913 788.774 934.851 789.399 934.726L790.067 931.819H791.134L790.911 936.202H776.767V935.347ZM801.219 935.534C800.867 935.815 800.381 936.034 799.76 936.19C799.139 936.347 798.5 936.425 797.844 936.425C795.883 936.425 794.416 935.952 793.444 935.007C792.471 934.062 791.985 932.616 791.985 930.671C791.985 929.46 792.205 928.423 792.647 927.56C793.088 926.696 793.719 926.036 794.539 925.579C795.36 925.122 796.313 924.894 797.399 924.894C798.492 924.894 799.684 925.03 800.973 925.304V928.562H800.129L799.637 926.628C799.371 926.433 799.11 926.296 798.852 926.218C798.594 926.14 798.254 926.101 797.832 926.101C797.371 926.101 796.953 926.284 796.578 926.651C796.203 927.019 795.912 927.536 795.705 928.204C795.498 928.872 795.395 929.671 795.395 930.601C795.395 932.171 795.639 933.292 796.127 933.964C796.615 934.636 797.391 934.972 798.453 934.972C799.531 934.972 800.453 934.858 801.219 934.632V935.534ZM808.878 935.241L808.081 935.651C806.988 936.214 806.003 936.495 805.128 936.495C803.097 936.495 802.081 935.413 802.081 933.249V926.241L800.98 925.96V925.187H805.468V932.792C805.468 933.448 805.607 933.96 805.884 934.327C806.161 934.694 806.558 934.878 807.074 934.878C807.667 934.878 808.261 934.745 808.855 934.48V926.241L807.847 925.96V925.187H812.242V935.148L813.32 935.429V936.202H809.042L808.878 935.241ZM819.163 924.94C821.92 924.94 823.299 925.956 823.299 927.987V935.148L824.401 935.429V936.202H820.346L820.088 935.358C819.479 935.773 818.928 936.056 818.436 936.208C817.944 936.36 817.448 936.437 816.948 936.437C814.674 936.437 813.538 935.343 813.538 933.155C813.538 932.327 813.706 931.665 814.042 931.169C814.378 930.673 814.862 930.306 815.495 930.067C816.128 929.829 817.124 929.694 818.483 929.663L819.913 929.628V928.023C819.913 926.694 819.37 926.03 818.284 926.03C817.628 926.03 816.893 926.233 816.081 926.64L815.635 928.011H814.862V925.351C816.042 925.171 816.909 925.058 817.463 925.011C818.018 924.964 818.585 924.94 819.163 924.94ZM819.913 930.671L818.928 930.706C818.17 930.737 817.645 930.937 817.352 931.304C817.059 931.671 816.913 932.265 816.913 933.085C816.913 933.749 817.03 934.237 817.264 934.55C817.499 934.862 817.803 935.019 818.178 935.019C818.71 935.019 819.288 934.882 819.913 934.608V930.671ZM832.154 935.581C831.717 935.862 831.381 936.048 831.146 936.138C830.912 936.228 830.646 936.3 830.349 936.355C830.052 936.409 829.724 936.437 829.365 936.437C827.74 936.437 826.529 935.97 825.732 935.036C824.935 934.103 824.537 932.667 824.537 930.73C824.537 928.823 824.965 927.374 825.82 926.382C826.676 925.39 827.916 924.894 829.541 924.894C830.392 924.894 831.252 924.999 832.119 925.21C832.072 924.952 832.049 924.347 832.049 923.394V920.605L830.924 920.323V919.55H835.435V935.148L836.642 935.429V936.202H832.4L832.154 935.581ZM827.97 930.636C827.97 932.097 828.154 933.212 828.521 933.982C828.888 934.751 829.416 935.136 830.103 935.136C830.728 935.136 831.377 934.968 832.049 934.632V926.335C831.439 926.171 830.822 926.089 830.197 926.089C829.494 926.089 828.947 926.474 828.556 927.243C828.166 928.013 827.97 929.144 827.97 930.636ZM846.798 930.636C846.798 932.612 846.374 934.073 845.526 935.019C844.679 935.964 843.384 936.437 841.642 936.437C839.954 936.437 838.696 935.958 837.868 935.001C837.04 934.044 836.626 932.589 836.626 930.636C836.626 928.69 837.046 927.247 837.886 926.306C838.726 925.364 840.009 924.894 841.735 924.894C843.478 924.894 844.757 925.38 845.573 926.353C846.39 927.325 846.798 928.753 846.798 930.636ZM843.364 930.636C843.364 928.917 843.237 927.728 842.983 927.067C842.729 926.407 842.29 926.077 841.665 926.077C841.063 926.077 840.645 926.394 840.411 927.026C840.177 927.659 840.06 928.862 840.06 930.636C840.06 932.44 840.179 933.663 840.417 934.304C840.655 934.944 841.071 935.265 841.665 935.265C842.282 935.265 842.72 934.927 842.978 934.251C843.235 933.575 843.364 932.37 843.364 930.636ZM851.914 927.472C852.758 926.534 853.514 925.86 854.182 925.45C854.85 925.04 855.461 924.835 856.016 924.835H856.649V928.855H855.992L855.301 927.378C854.809 927.378 854.25 927.485 853.625 927.7C853 927.915 852.449 928.167 851.973 928.456V935.148L853.742 935.429V936.202H847.156V935.429L848.586 935.148V926.241L847.156 925.96V925.187H851.785L851.914 927.472ZM861.21 931.573V929.534H867.444V931.573H861.21ZM881.743 934.773C882.915 934.773 883.821 934.444 884.462 933.788C885.103 933.132 885.423 932.167 885.423 930.894V921.648L883.313 921.343V920.487H888.657V921.343L886.876 921.648V930.8C886.876 932.612 886.353 934.003 885.306 934.972C884.259 935.94 882.763 936.425 880.817 936.425C878.716 936.425 877.104 935.935 875.983 934.954C874.862 933.974 874.302 932.558 874.302 930.706V921.648L872.52 921.343V920.487H880.009V921.343L877.993 921.648V930.87C877.993 932.128 878.311 933.093 878.948 933.765C879.585 934.437 880.517 934.773 881.743 934.773ZM894.57 935.03L896.586 935.335V936.202H888.863V935.335L890.879 935.03V921.659L888.863 921.343V920.487H896.586V921.343L894.57 921.659V935.03ZM908.464 928.351C908.464 926.085 908.05 924.423 907.222 923.364C906.394 922.306 905.046 921.776 903.179 921.776H902.312V934.866C903.062 934.929 903.742 934.96 904.351 934.96C905.367 934.96 906.169 934.741 906.759 934.304C907.349 933.866 907.781 933.181 908.054 932.247C908.328 931.314 908.464 930.015 908.464 928.351ZM904.081 920.487C906.902 920.487 908.986 921.126 910.333 922.403C911.681 923.681 912.355 925.632 912.355 928.257C912.355 930.952 911.71 932.958 910.421 934.274C909.132 935.591 907.183 936.249 904.574 936.249L899.312 936.202H896.617V935.347L898.632 935.03V921.648L896.617 921.343V920.487H904.081ZM912.737 935.347L914.753 935.03V921.648L912.737 921.343V920.487H926.12V924.483H925.053L924.678 921.94C923.803 921.831 922.538 921.776 920.881 921.776H918.444V927.542H922.557L922.92 925.808H923.963V930.636H922.92L922.557 928.855H918.444V934.913H921.409C923.424 934.913 924.745 934.851 925.37 934.726L926.038 931.819H927.104L926.881 936.202H912.737V935.347Z" fill="#1A1C1C"/>
<path d="M598.531 961.381H599.814L600.732 962.578L601.136 963.087L602.591 964.991H601.262L600.296 963.726L599.97 963.276L598.531 961.381ZM598.958 964.319C598.203 964.319 597.529 964.14 596.934 963.782C596.34 963.424 595.871 962.91 595.528 962.241C595.185 961.572 595.014 960.772 595.014 959.843C595.014 958.909 595.185 958.107 595.528 957.437C595.871 956.768 596.34 956.253 596.934 955.894C597.529 955.534 598.203 955.355 598.958 955.355C599.712 955.355 600.386 955.534 600.979 955.894C601.571 956.253 602.038 956.768 602.38 957.437C602.722 958.107 602.893 958.909 602.893 959.843C602.893 960.773 602.722 961.573 602.38 962.242C602.038 962.911 601.571 963.425 600.979 963.783C600.386 964.14 599.712 964.319 598.958 964.319ZM598.958 963.103C599.455 963.103 599.9 962.978 600.292 962.728C600.685 962.479 600.995 962.111 601.223 961.625C601.451 961.139 601.565 960.545 601.565 959.843C601.565 959.134 601.451 958.536 601.223 958.05C600.995 957.563 600.685 957.195 600.292 956.946C599.9 956.696 599.455 956.571 598.958 956.571C598.458 956.571 598.012 956.697 597.617 956.948C597.223 957.199 596.912 957.568 596.684 958.054C596.455 958.541 596.341 959.137 596.341 959.843C596.341 960.545 596.455 961.138 596.684 961.622C596.912 962.107 597.223 962.474 597.617 962.726C598.012 962.977 598.458 963.103 598.958 963.103ZM609.221 964.337C608.522 964.337 607.911 964.202 607.388 963.934C606.865 963.665 606.46 963.295 606.173 962.823C605.886 962.351 605.742 961.811 605.742 961.201V955.472H607.081V961.093C607.081 961.485 607.168 961.833 607.342 962.139C607.516 962.444 607.763 962.684 608.082 962.859C608.402 963.034 608.781 963.122 609.221 963.122C609.661 963.122 610.04 963.034 610.358 962.859C610.676 962.684 610.922 962.444 611.094 962.139C611.266 961.833 611.352 961.485 611.352 961.093V955.472H612.691V961.201C612.691 961.811 612.548 962.351 612.26 962.823C611.972 963.295 611.569 963.665 611.049 963.934C610.529 964.202 609.919 964.337 609.221 964.337ZM617.164 955.472V964.202H615.825V955.472H617.164ZM619.859 956.623V955.472H626.633V956.623H623.92V964.202H622.581V956.623H619.859ZM632.604 964.319C631.849 964.319 631.175 964.14 630.58 963.782C629.986 963.424 629.517 962.91 629.174 962.241C628.831 961.572 628.659 960.772 628.659 959.843C628.659 958.909 628.831 958.107 629.174 957.437C629.517 956.768 629.986 956.253 630.58 955.894C631.175 955.534 631.849 955.355 632.604 955.355C633.358 955.355 634.032 955.534 634.624 955.894C635.217 956.253 635.684 956.768 636.026 957.437C636.367 958.107 636.538 958.909 636.538 959.843C636.538 960.773 636.367 961.573 636.026 962.242C635.684 962.911 635.217 963.425 634.624 963.783C634.032 964.14 633.358 964.319 632.604 964.319ZM632.604 963.103C633.101 963.103 633.545 962.978 633.938 962.728C634.33 962.479 634.641 962.111 634.869 961.625C635.097 961.139 635.211 960.545 635.211 959.843C635.211 959.134 635.097 958.536 634.869 958.05C634.641 957.563 634.33 957.195 633.938 956.946C633.545 956.696 633.101 956.571 632.604 956.571C632.104 956.571 631.657 956.697 631.263 956.948C630.869 957.199 630.558 957.568 630.329 958.054C630.101 958.541 629.987 959.137 629.987 959.843C629.987 960.545 630.101 961.138 630.329 961.622C630.558 962.107 630.869 962.474 631.263 962.726C631.657 962.977 632.104 963.103 632.604 963.103ZM638.604 966.376L639.12 962.95H640.511L639.542 966.376H638.604ZM647.952 964.202V955.472H653.448V956.623H649.291V959.224H653.153V960.366H649.291V963.051H653.487V964.202H647.952ZM660.016 964.319C659.26 964.319 658.586 964.14 657.993 963.782C657.4 963.424 656.933 962.91 656.593 962.241C656.253 961.572 656.082 960.772 656.082 959.843C656.082 958.909 656.253 958.107 656.594 957.437C656.936 956.768 657.403 956.253 657.997 955.894C658.59 955.534 659.263 955.355 660.016 955.355C660.475 955.355 660.907 955.421 661.312 955.553C661.716 955.685 662.078 955.878 662.397 956.132C662.716 956.386 662.98 956.695 663.19 957.058C663.4 957.422 663.542 957.836 663.616 958.299H662.271C662.215 958.018 662.119 957.772 661.982 957.558C661.845 957.345 661.676 957.165 661.476 957.017C661.276 956.869 661.053 956.758 660.807 956.683C660.561 956.609 660.301 956.571 660.028 956.571C659.528 956.571 659.08 956.698 658.685 956.95C658.289 957.203 657.978 957.572 657.751 958.059C657.524 958.545 657.41 959.14 657.41 959.843C657.41 960.547 657.525 961.142 657.754 961.628C657.984 962.114 658.296 962.481 658.69 962.73C659.085 962.978 659.53 963.103 660.026 963.103C660.299 963.103 660.559 963.064 660.804 962.988C661.05 962.912 661.273 962.801 661.474 962.655C661.675 962.508 661.844 962.328 661.982 962.113C662.12 961.898 662.217 961.652 662.273 961.375H663.618C663.552 961.807 663.418 962.202 663.215 962.56C663.011 962.918 662.752 963.229 662.436 963.493C662.12 963.757 661.758 963.961 661.349 964.104C660.941 964.248 660.496 964.319 660.016 964.319ZM669.868 964.337C669.169 964.337 668.558 964.202 668.035 963.934C667.512 963.665 667.107 963.295 666.82 962.823C666.533 962.351 666.389 961.811 666.389 961.201V955.472H667.728V961.093C667.728 961.485 667.815 961.833 667.989 962.139C668.163 962.444 668.41 962.684 668.729 962.859C669.049 963.034 669.428 963.122 669.868 963.122C670.308 963.122 670.687 963.034 671.005 962.859C671.323 962.684 671.568 962.444 671.741 962.139C671.913 961.833 671.999 961.485 671.999 961.093V955.472H673.338V961.201C673.338 961.811 673.194 962.351 672.907 962.823C672.619 963.295 672.216 963.665 671.696 963.934C671.176 964.202 670.566 964.337 669.868 964.337ZM675.57 964.202L678.679 955.472H680.318L683.479 964.202H682.035L680.335 959.345C680.202 958.95 680.057 958.486 679.9 957.951C679.742 957.416 679.559 956.774 679.352 956.025H679.622C679.42 956.78 679.24 957.429 679.083 957.97C678.927 958.511 678.788 958.97 678.666 959.345L677.017 964.202H675.57ZM677.254 961.902V960.786H681.795V961.902H677.254ZM688.785 964.202H686.625V963.032H688.711C689.372 963.032 689.921 962.909 690.359 962.661C690.797 962.414 691.125 962.052 691.343 961.574C691.561 961.096 691.669 960.512 691.669 959.824C691.669 959.141 691.561 958.562 691.344 958.089C691.127 957.616 690.805 957.257 690.379 957.011C689.952 956.765 689.421 956.642 688.784 956.642H686.58V955.472H688.87C689.73 955.472 690.466 955.646 691.078 955.994C691.691 956.342 692.161 956.841 692.489 957.492C692.818 958.143 692.982 958.92 692.982 959.824C692.982 960.733 692.817 961.515 692.487 962.169C692.158 962.823 691.68 963.325 691.054 963.676C690.428 964.027 689.672 964.202 688.785 964.202ZM687.284 955.472V964.202H685.946V955.472H687.284ZM699.444 964.319C698.689 964.319 698.015 964.14 697.42 963.782C696.826 963.424 696.357 962.91 696.014 962.241C695.671 961.572 695.5 960.772 695.5 959.843C695.5 958.909 695.671 958.107 696.014 957.437C696.357 956.768 696.826 956.253 697.42 955.894C698.015 955.534 698.689 955.355 699.444 955.355C700.198 955.355 700.872 955.534 701.465 955.894C702.057 956.253 702.524 956.768 702.866 957.437C703.208 958.107 703.379 958.909 703.379 959.843C703.379 960.773 703.208 961.573 702.866 962.242C702.524 962.911 702.057 963.425 701.465 963.783C700.872 964.14 700.198 964.319 699.444 964.319ZM699.444 963.103C699.941 963.103 700.386 962.978 700.778 962.728C701.171 962.479 701.481 962.111 701.709 961.625C701.937 961.139 702.051 960.545 702.051 959.843C702.051 959.134 701.937 958.536 701.709 958.05C701.481 957.563 701.171 957.195 700.778 956.946C700.386 956.696 699.941 956.571 699.444 956.571C698.944 956.571 698.498 956.697 698.103 956.948C697.709 957.199 697.398 957.568 697.17 958.054C696.941 958.541 696.827 959.137 696.827 959.843C696.827 960.545 696.941 961.138 697.17 961.622C697.398 962.107 697.709 962.474 698.103 962.726C698.498 962.977 698.944 963.103 699.444 963.103ZM706.205 964.202V955.472H709.332C710.006 955.472 710.567 955.588 711.015 955.821C711.463 956.055 711.799 956.378 712.022 956.791C712.246 957.203 712.357 957.678 712.357 958.216C712.357 958.754 712.245 959.225 712.021 959.629C711.796 960.033 711.46 960.347 711.011 960.571C710.562 960.794 709.999 960.906 709.322 960.906H706.972V959.763H709.193C709.621 959.763 709.968 959.701 710.233 959.578C710.498 959.455 710.693 959.278 710.817 959.047C710.942 958.816 711.004 958.539 711.004 958.216C711.004 957.885 710.942 957.601 710.817 957.364C710.693 957.126 710.497 956.942 710.231 956.811C709.964 956.681 709.615 956.616 709.183 956.616H707.544V964.202H706.205ZM711.168 964.202L709.054 960.257H710.536L712.689 964.202H711.168Z" fill="#5E3F3C"/>
<rect x="729.613" y="957.202" width="6" height="6" rx="3" fill="#E8BCB8"/>
<path d="M755.453 964.319C754.638 964.319 753.982 964.089 753.485 963.629C752.988 963.169 752.739 962.514 752.739 961.664V961.181H754.078V961.672C754.078 962.166 754.204 962.541 754.454 962.799C754.704 963.057 755.037 963.186 755.453 963.186C755.866 963.186 756.198 963.057 756.447 962.799C756.697 962.541 756.821 962.165 756.821 961.67V955.472H758.154V961.662C758.154 962.513 757.907 963.168 757.414 963.629C756.92 964.089 756.266 964.319 755.453 964.319ZM764.763 964.337C764.065 964.337 763.454 964.202 762.931 963.934C762.408 963.665 762.003 963.295 761.716 962.823C761.429 962.351 761.285 961.811 761.285 961.201V955.472H762.624V961.093C762.624 961.485 762.711 961.833 762.885 962.139C763.059 962.444 763.306 962.684 763.625 962.859C763.945 963.034 764.324 963.122 764.763 963.122C765.203 963.122 765.583 963.034 765.901 962.859C766.219 962.684 766.464 962.444 766.637 962.139C766.809 961.833 766.895 961.485 766.895 961.093V955.472H768.234V961.201C768.234 961.811 768.09 962.351 767.803 962.823C767.515 963.295 767.111 963.665 766.592 963.934C766.072 964.202 765.462 964.337 764.763 964.337ZM771.368 964.202V955.472H772.908L776.194 960.668C776.304 960.84 776.427 961.045 776.564 961.284C776.701 961.524 776.846 961.792 776.999 962.09C777.152 962.389 777.303 962.714 777.452 963.065H777.285C777.253 962.733 777.227 962.403 777.209 962.077C777.191 961.751 777.179 961.445 777.171 961.161C777.164 960.877 777.16 960.636 777.16 960.439V955.472H778.512V964.202H776.962L774.018 959.554C773.86 959.3 773.706 959.044 773.556 958.787C773.406 958.531 773.24 958.234 773.059 957.896C772.877 957.559 772.655 957.147 772.392 956.661H772.604C772.626 957.09 772.646 957.492 772.664 957.866C772.682 958.24 772.697 958.571 772.708 958.858C772.719 959.145 772.724 959.373 772.724 959.544V964.202H771.368ZM782.983 955.472V964.202H781.644V955.472H782.983ZM789.752 964.319C788.997 964.319 788.323 964.14 787.728 963.782C787.134 963.424 786.665 962.91 786.322 962.241C785.979 961.572 785.808 960.772 785.808 959.843C785.808 958.909 785.979 958.107 786.322 957.437C786.665 956.768 787.134 956.253 787.728 955.894C788.323 955.534 788.997 955.355 789.752 955.355C790.506 955.355 791.18 955.534 791.773 955.894C792.365 956.253 792.832 956.768 793.174 957.437C793.516 958.107 793.687 958.909 793.687 959.843C793.687 960.773 793.516 961.573 793.174 962.242C792.832 962.911 792.365 963.425 791.773 963.783C791.18 964.14 790.506 964.319 789.752 964.319ZM789.752 963.103C790.249 963.103 790.694 962.978 791.086 962.728C791.479 962.479 791.789 962.111 792.017 961.625C792.245 961.139 792.359 960.545 792.359 959.843C792.359 959.134 792.245 958.536 792.017 958.05C791.789 957.563 791.479 957.195 791.086 956.946C790.694 956.696 790.249 956.571 789.752 956.571C789.252 956.571 788.806 956.697 788.411 956.948C788.017 957.199 787.706 957.568 787.478 958.054C787.249 958.541 787.135 959.137 787.135 959.843C787.135 960.545 787.249 961.138 787.478 961.622C787.706 962.107 788.017 962.474 788.411 962.726C788.806 962.977 789.252 963.103 789.752 963.103ZM800.789 964.202V963.238L803.754 960.173C804.059 959.852 804.313 959.569 804.517 959.322C804.722 959.076 804.876 958.839 804.981 958.612C805.086 958.385 805.138 958.142 805.138 957.884C805.138 957.594 805.07 957.344 804.935 957.132C804.799 956.921 804.615 956.759 804.383 956.646C804.152 956.533 803.888 956.476 803.592 956.476C803.281 956.476 803.01 956.54 802.78 956.666C802.55 956.792 802.372 956.971 802.247 957.201C802.121 957.431 802.058 957.703 802.058 958.017H800.779C800.779 957.483 800.902 957.017 801.146 956.617C801.391 956.217 801.727 955.907 802.154 955.686C802.581 955.465 803.069 955.355 803.616 955.355C804.168 955.355 804.655 955.463 805.075 955.681C805.495 955.899 805.824 956.195 806.062 956.569C806.3 956.943 806.419 957.366 806.419 957.838C806.419 958.158 806.36 958.471 806.242 958.775C806.124 959.079 805.916 959.423 805.617 959.806C805.319 960.19 804.898 960.655 804.355 961.202L802.641 962.992V963.06H806.556V964.202H800.789ZM812.412 964.319C811.735 964.319 811.157 964.143 810.679 963.791C810.201 963.439 809.835 962.93 809.581 962.264C809.327 961.598 809.201 960.79 809.201 959.842C809.201 958.898 809.328 958.092 809.584 957.424C809.839 956.755 810.206 956.244 810.684 955.888C811.162 955.532 811.738 955.355 812.412 955.355C813.086 955.355 813.663 955.532 814.143 955.888C814.624 956.244 814.99 956.756 815.244 957.424C815.497 958.092 815.624 958.898 815.624 959.843C815.624 960.788 815.498 961.594 815.246 962.261C814.994 962.929 814.629 963.439 814.151 963.791C813.673 964.143 813.093 964.319 812.412 964.319ZM812.412 963.176C812.816 963.176 813.157 963.045 813.438 962.782C813.719 962.519 813.933 962.14 814.08 961.644C814.228 961.148 814.302 960.547 814.302 959.843C814.302 959.134 814.228 958.53 814.08 958.031C813.933 957.531 813.719 957.149 813.438 956.886C813.157 956.623 812.815 956.491 812.413 956.491C812.01 956.491 811.668 956.624 811.387 956.888C811.106 957.153 810.891 957.535 810.744 958.033C810.597 958.531 810.523 959.134 810.523 959.843C810.523 960.547 810.596 961.148 810.743 961.644C810.891 962.14 811.105 962.519 811.386 962.782C811.667 963.045 812.009 963.176 812.412 963.176ZM818.33 964.202V963.238L821.295 960.173C821.599 959.852 821.854 959.569 822.058 959.322C822.262 959.076 822.417 958.839 822.522 958.612C822.626 958.385 822.679 958.142 822.679 957.884C822.679 957.594 822.611 957.344 822.475 957.132C822.339 956.921 822.156 956.759 821.924 956.646C821.692 956.533 821.429 956.476 821.133 956.476C820.821 956.476 820.551 956.54 820.321 956.666C820.09 956.792 819.913 956.971 819.787 957.201C819.662 957.431 819.599 957.703 819.599 958.017H818.32C818.32 957.483 818.442 957.017 818.687 956.617C818.932 956.217 819.268 955.907 819.695 955.686C820.122 955.465 820.609 955.355 821.157 955.355C821.709 955.355 822.195 955.463 822.616 955.681C823.036 955.899 823.365 956.195 823.603 956.569C823.84 956.943 823.959 957.366 823.959 957.838C823.959 958.158 823.9 958.471 823.782 958.775C823.665 959.079 823.456 959.423 823.158 959.806C822.859 960.19 822.439 960.655 821.896 961.202L820.182 962.992V963.06H824.096V964.202H818.33ZM829.94 964.319C829.551 964.319 829.166 964.251 828.786 964.113C828.406 963.975 828.062 963.747 827.754 963.428C827.446 963.109 827.2 962.68 827.017 962.141C826.833 961.602 826.741 960.931 826.741 960.129C826.741 959.37 826.817 958.696 826.97 958.106C827.122 957.516 827.343 957.016 827.632 956.607C827.921 956.197 828.27 955.886 828.677 955.673C829.085 955.461 829.543 955.355 830.053 955.355C830.569 955.355 831.03 955.457 831.435 955.662C831.84 955.867 832.17 956.149 832.424 956.508C832.678 956.867 832.838 957.279 832.904 957.744H831.591C831.501 957.388 831.327 957.096 831.067 956.867C830.808 956.639 830.469 956.525 830.053 956.525C829.628 956.525 829.264 956.649 828.962 956.899C828.659 957.149 828.428 957.508 828.269 957.977C828.11 958.445 828.03 959.008 828.03 959.666H828.096C828.245 959.419 828.429 959.208 828.648 959.031C828.868 958.854 829.115 958.719 829.389 958.625C829.664 958.531 829.955 958.485 830.26 958.485C830.766 958.485 831.224 958.607 831.635 958.852C832.046 959.096 832.373 959.435 832.616 959.867C832.859 960.299 832.981 960.794 832.981 961.351C832.981 961.909 832.855 962.412 832.603 962.86C832.351 963.308 831.997 963.663 831.54 963.925C831.084 964.188 830.551 964.319 829.94 964.319ZM829.936 963.194C830.267 963.194 830.564 963.113 830.828 962.949C831.091 962.786 831.299 962.566 831.453 962.29C831.606 962.015 831.683 961.707 831.683 961.366C831.683 961.032 831.609 960.728 831.46 960.456C831.311 960.183 831.107 959.967 830.847 959.807C830.587 959.647 830.291 959.566 829.96 959.566C829.711 959.566 829.48 959.614 829.266 959.711C829.052 959.807 828.865 959.939 828.705 960.108C828.544 960.277 828.419 960.471 828.33 960.688C828.24 960.906 828.196 961.135 828.196 961.376C828.196 961.7 828.271 962 828.421 962.276C828.571 962.552 828.778 962.774 829.042 962.942C829.306 963.11 829.604 963.194 829.936 963.194Z" fill="#5E3F3C"/>
<rect x="74" y="1024.2" width="1280" height="8" fill="url(#paint0_linear_57_2644)"/>
<defs>
<filter id="filter0_f_57_2644" x="354" y="250.202" width="720" height="720" filterUnits="userSpaceOnUse" color-interpolation-filters="sRGB">
<feFlood flood-opacity="0" result="BackgroundImageFix"/>
<feBlend mode="normal" in="SourceGraphic" in2="BackgroundImageFix" result="shape"/>
<feGaussianBlur stdDeviation="60" result="effect1_foregroundBlur_57_2644"/>
</filter>
<filter id="filter1_d_57_2644" x="504" y="420.202" width="420" height="420" filterUnits="userSpaceOnUse" color-interpolation-filters="sRGB">
<feFlood flood-opacity="0" result="BackgroundImageFix"/>
<feColorMatrix in="SourceAlpha" type="matrix" values="0 0 0 0 0 0 0 0 0 0 0 0 0 0 0 0 0 0 127 0" result="hardAlpha"/>
<feOffset dy="20"/>
<feGaussianBlur stdDeviation="25"/>
<feComposite in2="hardAlpha" operator="out"/>
<feColorMatrix type="matrix" values="0 0 0 0 0.729412 0 0 0 0 0 0 0 0 0 0.101961 0 0 0 0.3 0"/>
<feBlend mode="normal" in2="BackgroundImageFix" result="effect1_dropShadow_57_2644"/>
<feBlend mode="normal" in="SourceGraphic" in2="effect1_dropShadow_57_2644" result="shape"/>
</filter>
<filter id="filter2_d_57_2644" x="834.043" y="395.252" width="79.9082" height="79.9078" filterUnits="userSpaceOnUse" color-interpolation-filters="sRGB">
<feFlood flood-opacity="0" result="BackgroundImageFix"/>
<feColorMatrix in="SourceAlpha" type="matrix" values="0 0 0 0 0 0 0 0 0 0 0 0 0 0 0 0 0 0 127 0" result="hardAlpha"/>
<feOffset dy="1"/>
<feGaussianBlur stdDeviation="1"/>
<feComposite in2="hardAlpha" operator="out"/>
<feColorMatrix type="matrix" values="0 0 0 0 0 0 0 0 0 0 0 0 0 0 0 0 0 0 0.05 0"/>
<feBlend mode="normal" in2="BackgroundImageFix" result="effect1_dropShadow_57_2644"/>
<feBlend mode="normal" in="SourceGraphic" in2="effect1_dropShadow_57_2644" result="shape"/>
</filter>
<filter id="filter3_dd_57_2644" x="500.994" y="713.193" width="90.0176" height="90.0165" filterUnits="userSpaceOnUse" color-interpolation-filters="sRGB">
<feFlood flood-opacity="0" result="BackgroundImageFix"/>
<feColorMatrix in="SourceAlpha" type="matrix" values="0 0 0 0 0 0 0 0 0 0 0 0 0 0 0 0 0 0 127 0" result="hardAlpha"/>
<feMorphology radius="2" operator="erode" in="SourceAlpha" result="effect1_dropShadow_57_2644"/>
<feOffset dy="2"/>
<feGaussianBlur stdDeviation="2"/>
<feComposite in2="hardAlpha" operator="out"/>
<feColorMatrix type="matrix" values="0 0 0 0 0 0 0 0 0 0 0 0 0 0 0 0 0 0 0.1 0"/>
<feBlend mode="normal" in2="BackgroundImageFix" result="effect1_dropShadow_57_2644"/>
<feColorMatrix in="SourceAlpha" type="matrix" values="0 0 0 0 0 0 0 0 0 0 0 0 0 0 0 0 0 0 127 0" result="hardAlpha"/>
<feMorphology radius="1" operator="erode" in="SourceAlpha" result="effect2_dropShadow_57_2644"/>
<feOffset dy="4"/>
<feGaussianBlur stdDeviation="3"/>
<feComposite in2="hardAlpha" operator="out"/>
<feColorMatrix type="matrix" values="0 0 0 0 0 0 0 0 0 0 0 0 0 0 0 0 0 0 0.1 0"/>
<feBlend mode="normal" in2="effect1_dropShadow_57_2644" result="effect2_dropShadow_57_2644"/>
<feBlend mode="normal" in="SourceGraphic" in2="effect2_dropShadow_57_2644" result="shape"/>
</filter>
<linearGradient id="paint0_linear_57_2644" x1="74" y1="1028.2" x2="1354" y2="1028.2" gradientUnits="userSpaceOnUse">
<stop stop-color="#B7001A"/>
<stop offset="0.5" stop-color="#E60023"/>
<stop offset="1" stop-color="#B7001A"/>
</linearGradient>
</defs>
</svg>
